<?xml version="1.0" encoding="UTF-8" standalone="no"?>
<svg
   viewBox="0 0 1000 240"
   version="1.1"
   id="svg1"
   sodipodi:docname="anime-mini-logo.svg"
   inkscape:export-filename="fklog.svg"
   inkscape:export-xdpi="96"
   inkscape:export-ydpi="96"
   inkscape:version="1.3.2 (091e20e, 2023-11-25, custom)"
   xmlns:inkscape="http://www.inkscape.org/namespaces/inkscape"
   xmlns:sodipodi="http://sodipodi.sourceforge.net/DTD/sodipodi-0.dtd"
   xmlns="http://www.w3.org/2000/svg"
   xmlns:svg="http://www.w3.org/2000/svg">
  <defs
     id="defs1" />
  <sodipodi:namedview
     id="namedview1"
     pagecolor="#505050"
     bordercolor="#eeeeee"
     borderopacity="1"
     inkscape:showpageshadow="0"
     inkscape:pageopacity="0"
     inkscape:pagecheckerboard="0"
     inkscape:deskcolor="#505050"
     inkscape:zoom="0.7015"
     inkscape:cx="498.93086"
     inkscape:cy="119.03065"
     inkscape:window-width="1920"
     inkscape:window-height="1009"
     inkscape:window-x="-8"
     inkscape:window-y="-8"
     inkscape:window-maximized="1"
     inkscape:current-layer="anime-mini-logo" />
  <g
     id="anime-mini-logo"
     fill="none"
     fill-rule="evenodd"
     stroke-linecap="square"
     transform="translate(0,119.74341)"
     style="fill:#ffccaa;stroke:#ffe6d5">
    <path
       style="font-size:141.041px;font-family:'Cascadia Code';-inkscape-font-specification:'Cascadia Code';stroke-width:15.0056"
       d="m 44.799283,75.659337 v -118.08621 c 0,-44.637399 15.367913,-66.956097 46.103741,-66.956097 6.979848,0 13.714796,0.81158 20.204826,2.43477 l -2.02048,22.399854 c -3.85729,-0.649271 -7.25537,-1.095645 -10.194256,-1.339121 -2.938883,-0.243476 -5.785926,-0.365216 -8.541131,-0.365216 -17.388397,0 -26.082595,14.202808 -26.082595,42.608425 V 75.659337 Z M 14.124681,-2.9836444 V -24.166119 H 104.128 V -2.9836444 Z M 169.88553,75.659337 V -46.079024 h 19.47011 V 75.659337 Z m -37.10341,0 V 54.476862 h 38.94021 v 21.182475 z m 54.73671,0 V 54.476862 h 31.77668 v 21.182475 z m -49.2263,-107.860188 v -21.182476 h 51.06311 v 21.182476 z M 178.9777,-73.83537 c -3.73483,0 -6.94924,-1.744916 -9.6432,-5.234749 -2.63276,-3.570992 -3.94913,-7.831835 -3.94913,-12.782528 0,-5.031853 1.31637,-9.292693 3.94913,-12.782523 2.69396,-3.48984 5.90837,-5.23475 9.6432,-5.23475 3.79606,0 7.01046,1.74491 9.64322,5.23475 2.63275,3.48983 3.94912,7.75067 3.94912,12.782523 0,4.950693 -1.31637,9.211536 -3.94912,12.782528 -2.63276,3.489833 -5.84716,5.234749 -9.64322,5.234749 z m 66.03305,207.68564 -0.91839,-23.61724 31.22563,-1.21738 c 9.8575,-0.4058 17.02104,-4.01737 21.49058,-10.834717 4.46956,-6.817348 6.73495,-16.840472 6.79617,-30.069374 v -94.225492 l 1.83681,-27.269394 h 17.63331 V 64.215931 c 0,22.967971 -3.94913,39.930179 -11.84737,50.886639 -7.89826,10.95645 -20.48035,16.79989 -37.74631,17.53032 z m 30.95012,-55.756166 c -12.73515,0 -22.40899,-5.559386 -29.02149,-16.678155 -6.55125,-11.118772 -9.82688,-27.47229 -9.82688,-49.06056 0,-22.399859 3.27563,-39.36207 9.82688,-50.886634 6.6125,-11.524565 16.28634,-17.286848 29.02149,-17.286848 7.59212,0 13.74539,2.27245 18.45987,6.817349 4.71446,4.544898 7.46966,10.875292 8.26561,18.991183 h 7.53089 l -6.6125,36.7649854 c 0,-13.3100608 -1.98985,-23.4143454 -5.96961,-30.3128514 -3.9185,-6.898508 -9.70443,-10.347762 -17.35778,-10.347762 -7.83701,0 -13.77601,3.895628 -17.81698,11.686884 -4.04097,7.791255 -6.06145,19.3158193 -6.06145,34.573694 0,14.446286 2.02048,25.362159 6.06145,32.747619 4.04097,7.385462 9.97997,11.078192 17.81698,11.078192 7.65335,0 13.43928,-3.449254 17.35778,-10.347762 3.97976,-6.898506 5.96961,-17.00279 5.96961,-30.312852 l 6.6125,36.764986 h -8.44929 c -0.61227,8.11589 -3.21441,14.446286 -7.80642,18.991183 -4.53078,4.544898 -10.53099,6.817349 -18.00066,6.817349 z M 413.81291,75.659337 V -8.3401318 c 0,-8.1970492 -1.53067,-14.4868662 -4.592,-18.8694462 -3.06134,-4.46374 -7.34723,-6.695611 -12.85763,-6.695611 -15.30669,0 -22.96003,12.336154 -22.96003,37.0084627 l -5.69408,-33.1128347 h 7.53089 c 0.55104,-8.684003 2.93889,-15.136134 7.16353,-19.356398 4.22465,-4.301423 10.40855,-6.452134 18.55171,-6.452134 10.28609,0 18.24556,4.139105 23.87842,12.417314 5.63287,8.278208 8.4493,19.96509 8.4493,35.0606472 V 75.659337 Z m -59.87976,0 V -106.9482 h 19.4701 V 75.659337 Z m 167.51637,2.434767 c -14.75564,0 -25.43972,-4.057946 -32.05221,-12.173836 -6.55125,-8.115892 -9.82689,-21.101316 -9.82689,-38.956276 V 5.0510878 h 19.47012 V 25.746609 c 0,10.226023 1.86742,17.652063 5.60224,22.278119 3.79607,4.626058 10.01057,6.939087 18.64354,6.939087 3.06134,0 6.30636,-0.202898 9.73505,-0.608693 3.4287,-0.486953 7.34722,-1.095645 11.75554,-1.826074 l 2.20416,22.643335 c -4.28587,0.973907 -8.4799,1.704336 -12.58209,2.19129 -4.04096,0.486954 -8.35744,0.730431 -12.94946,0.730431 z M 479.57042,14.790157 V -92.339601 h 19.47012 V 14.790157 Z m -24.42946,-46.991008 v -21.182476 h 88.16651 v 21.182476 z M 587.39072,26.720516 V 3.5902273 h 11.02082 c 8.08192,0 14.72502,-1.8260748 19.9293,-5.4782267 5.20427,-3.7333094 9.27585,-9.7796486 12.21473,-18.1390156 3.00012,-8.359367 5.20429,-19.478139 6.6125,-33.356312 h 20.20481 C 654.80137,-26.519728 649.01543,-6.4328983 640.0151,6.8771625 631.076,20.106065 618.73882,26.720516 603.00353,26.720516 Z M 573.61469,75.659337 V -106.9482 h 19.47012 V 75.659337 Z m 65.94122,0 -27.73571,-62.816994 18.36801,-9.9825466 33.42981,72.7995406 z m 99.18736,2.434767 c -11.26573,0 -19.40887,-4.057946 -24.42946,-12.173836 -5.0206,-8.115892 -7.53089,-21.101316 -7.53089,-38.956276 V -106.9482 h 19.4701 V 25.746609 c 0,6.817347 0.48982,12.376732 1.46944,16.678155 0.97963,4.301422 2.87765,7.466619 5.69408,9.495592 2.87767,2.028974 7.1023,3.043459 12.67393,3.043459 5.08183,0 11.57187,-1.542019 19.47012,-4.626057 l 2.20417,22.643334 c -4.95938,1.785496 -9.73506,3.08404 -14.32706,3.895628 -4.53079,0.811589 -9.42894,1.217384 -14.69443,1.217384 z M 678.12878,-85.76573 v -21.18247 h 30.30725 v 21.18247 z M 824.88925,78.094104 c -10.22487,0 -18.15373,-4.017367 -23.7866,-12.052099 -5.57162,-8.115889 -8.35743,-19.518717 -8.35743,-34.208479 v -85.216853 h 19.4701 v 85.216853 c 0,7.385462 1.59189,13.107165 4.77568,17.16511 3.18379,3.976786 7.65335,5.965179 13.40866,5.965179 7.10231,0 12.45965,-2.962299 16.07202,-8.8869 3.61238,-6.005758 5.41857,-16.028883 5.41857,-30.069374 l 4.95937,34.81717 h -6.42881 c -1.53068,8.765163 -4.53078,15.501352 -9.00034,20.208567 -4.46955,4.707217 -9.97995,7.060826 -16.53122,7.060826 z M 853.54338,76.87672 851.89025,45.955177 V 23.311841 h 19.47012 v 28.973731 l 13.40865,2.678243 v 20.695522 z m -1.65313,-37.738892 v -92.521155 h 19.47012 v 85.216853 z m 78.70701,38.956276 c -4.40832,0 -8.75541,-0.243477 -13.04129,-0.730431 -4.28588,-0.405795 -8.63297,-0.973906 -13.0413,-1.704336 l 7.53089,-23.617242 c 3.24503,2.028973 6.8268,3.246356 10.7453,3.652151 3.9185,0.324635 7.8064,0.486954 11.66369,0.486954 11.69431,0 20.72526,-4.666639 27.09285,-13.999912 6.42879,-9.333275 9.6432,-22.521597 9.6432,-39.5649678 0,-11.6868828 -1.95926,-20.6955212 -5.87777,-27.0259162 -3.85729,-6.330395 -9.36769,-9.495593 -16.53122,-9.495593 -16.53122,0 -24.79683,12.336154 -24.79683,37.0084627 l -5.69409,-33.1128347 h 7.53089 c 0.91841,-17.205687 8.87788,-25.808532 23.87843,-25.808532 12.98008,0 23.02126,5.072432 30.12357,15.217294 7.1023,10.144864 10.65345,24.550571 10.65345,43.2171192 0,23.9418788 -5.23489,42.5272678 -15.70467,55.7561698 -10.40854,13.147743 -25.13356,19.721614 -44.1751,19.721614 z M 904.51467,75.659337 V -106.9482 h 19.47011 V 73.468047 Z"
       id="text1"
       aria-label="fightklub.in"
       inkscape:export-filename="fklog.svg"
       inkscape:export-xdpi="96"
       inkscape:export-ydpi="96"
       sodipodi:nodetypes="cssccssscccccccccccccccccccccccccccscscssscscccsccccssccscscssccccssssscccccscscsccccssscccccccscsccscsccccsccccccccccccscccccscccccccccccsssccsscscccscccccscsccscsccccsscccccccccccccsccccscscscccssscsccccc" />
  </g>
</svg>
